<svg xmlns="http://www.w3.org/2000/svg" viewBox="0 0 64 64">
  <!-- Body -->
  <rect x="12" y="14" width="40" height="36" rx="14" fill="#6BCF8E"/>

  <!-- Top highlight -->
  <ellipse cx="32" cy="18" rx="14" ry="3" fill="#7FE0A4" opacity="0.6"/>

  <!-- Clock display -->
  <rect x="20" y="26" width="24" height="10" rx="3" fill="#4CAF50"/>

  <!-- Digits (12:35 stylized) -->
  <g fill="#DFFFEA">
    <!-- 1 -->
    <rect x="22" y="28" width="2" height="6"/>
    <!-- 2 -->
    <path d="M26 28 h4 v2 h-4 v2 h4 v2 h-6 v-2 h4 v-2 h-4 z"/>
    <!-- : -->
    <circle cx="32" cy="30" r="1"/>
    <circle cx="32" cy="34" r="1"/>
    <!-- 3 -->
    <path d="M35 28 h4 v2 h-4 v2 h4 v2 h-4"/>
    <!-- 5 -->
    <path d="M40 28 h4 v2 h-4 v2 h4 v4 h-6 v-2 h4 v-2 h-4 z"/>
  </g>

  <!-- Bottom base -->
  <rect x="16" y="48" width="32" height="4" rx="2" fill="#58B77B"/>
</svg>